<svg width="2988" height="1879" viewBox="0 0 2988 1879" fill="none" xmlns="http://www.w3.org/2000/svg">
<g filter="url(#filter0_f_20_585)">
<path d="M1975.29 763.743C1728.13 710.334 1419.16 982.535 1274.96 1147.49C1264.13 1159.88 1269.94 1178.97 1285.76 1183.48C1487.26 1240.97 1841.39 1317.81 1873.14 1226.62C1905.56 1133.53 2277.51 1060.98 2478.4 1033.46C2490.24 1031.84 2498.96 1021.5 2497.53 1009.64C2488.67 936.47 2447.97 822.893 2336.28 826.487C2182.37 831.441 2301.3 834.193 1975.29 763.743Z" fill="#0BC5EA"/>
<path d="M1170.37 724.835C1294.79 728.453 1489.47 974.969 1579.78 1109.93C1585.15 1117.96 1584.86 1128.49 1578.49 1135.75C1544.73 1174.19 1465.58 1242.59 1349.07 1284.91C1218.62 1332.3 830.163 1266.21 874.397 1195.03C910.881 1136.32 874.35 982.448 837.717 921.764C791.925 845.91 1009.54 720.159 1170.37 724.835Z" fill="#D9D9D9"/>
<path d="M923.956 1055.17C819.838 1149.53 1303.7 1209.58 1564.6 1228.34C1568.77 1228.64 1572.72 1228.16 1576.42 1226.94C1581.92 1225.14 1586.31 1221.88 1589.02 1217.45C1671.07 1083.35 1803.83 808.601 1708.49 729.951C1622.1 658.682 1539.45 694.003 1498.4 728.82C1489.68 736.218 1488.63 748.061 1490.78 759.396C1498.14 798.178 1487.58 867.742 1403.11 935.767C1278.19 1036.38 1055.14 936.288 923.956 1055.17Z" fill="#B83280"/>
<path d="M1325.82 1287.67L1387.44 1140.31C1396.29 1119.14 1399.26 1092.24 1381.47 1077.75C1367.7 1066.53 1348.01 1050.73 1320.45 1028.87C1235.24 961.301 1063.64 963.241 961.321 975.589C941.014 978.04 928.105 997.701 928.559 1018.15C929.938 1080.23 903.188 1159.09 787.609 1151.35C611.607 1139.58 585.379 1336.65 821.429 1379.83C1001.78 1412.82 1212.85 1347.71 1307.82 1306.22C1316.04 1302.63 1322.36 1295.95 1325.82 1287.67Z" fill="#D69E2E"/>
<path d="M1393.36 781.982C1222.19 790.704 1180.34 869.865 1179.99 923.056C1179.9 936.25 1189.93 946.462 1202.59 950.192C1471.25 1029.36 2103.65 1271.93 2205.77 1295.43C2336.76 1325.58 2161.75 819.136 1824.16 869.994C1486.56 920.852 1638.41 769.496 1393.36 781.982Z" fill="#E53E3E"/>
</g>
<g style="mix-blend-mode:color-dodge" filter="url(#filter1_f_20_585)">
<path d="M848.512 967.391C1162.26 1034.38 1555.28 688.803 1734.07 484.687C1744.97 472.241 1739.16 453.051 1723.24 448.523C1471.56 376.913 1017.21 278.167 976.873 392.625C935.842 509.044 462.067 599.577 210.918 633.192C199.06 634.779 190.338 645.085 191.629 656.979C201.457 747.551 251.848 894.027 394.851 889.479C588.272 883.329 438.81 879.911 848.512 967.391Z" fill="#0BC5EA"/>
<path d="M1860.04 1015.7C1702.69 1011.18 1455.93 701.228 1343.41 534.362C1337.95 526.272 1338.28 515.662 1344.68 508.295C1385.61 461.153 1486.11 373.85 1635.47 320.246C1799.41 261.409 2287.57 343.471 2231.99 431.854C2186.14 504.755 2232.04 695.821 2278.08 771.173C2335.63 865.363 2062.15 1021.51 1860.04 1015.7Z" fill="#D9D9D9"/>
<path d="M2169.71 605.519C2300.55 488.36 1692.5 413.784 1364.63 390.491C1359.38 390.118 1354.42 390.721 1349.77 392.227C1342.85 394.468 1337.33 398.517 1333.91 404.046C1230.8 570.564 1063.98 911.694 1183.79 1009.35C1294.85 1099.88 1400.99 1051.9 1451.28 1007.78C1459.84 1000.27 1460.94 988.506 1458.32 977.199C1447.4 930.044 1458.08 840.898 1567.55 753.785C1724.54 628.859 2004.85 753.139 2169.71 605.519Z" fill="#B83280"/>
<path d="M1666.01 313.696L1582.84 510.242C1573.95 531.242 1568.01 555.793 1585.71 570.169C1603.05 584.256 1630.24 605.893 1671.44 638.178C1781.15 724.147 2004.85 719.5 2132.09 703.182C2152.44 700.572 2165.47 680.871 2164.28 660.387C2159.74 582.184 2190.15 476.112 2341.05 486.089C2562.23 500.713 2595.19 256.006 2298.55 202.385C2069.86 161.046 1801.86 243.744 1684.11 295.177C1675.89 298.768 1669.5 305.433 1666.01 313.696Z" fill="#D69E2E"/>
<path d="M1579.81 944.742C1800.62 933.625 1850.19 830.339 1847.88 764.382C1847.41 751.189 1837.59 741.093 1824.91 737.429C1490.42 640.784 687.883 336.525 558.868 307.186C394.244 269.749 614.179 898.608 1038.43 835.457C1462.69 772.306 1271.86 960.246 1579.81 944.742Z" fill="#E53E3E"/>
</g>
<defs>
<filter id="filter0_f_20_585" x="159.986" y="198.621" width="2827.7" height="1680.23" filterUnits="userSpaceOnUse" color-interpolation-filters="sRGB">
<feFlood flood-opacity="0" result="BackgroundImageFix"/>
<feBlend mode="normal" in="SourceGraphic" in2="BackgroundImageFix" result="shape"/>
<feGaussianBlur stdDeviation="245" result="effect1_foregroundBlur_20_585"/>
</filter>
<filter id="filter1_f_20_585" x="0.502106" y="0.189453" width="2704.5" height="1251.48" filterUnits="userSpaceOnUse" color-interpolation-filters="sRGB">
<feFlood flood-opacity="0" result="BackgroundImageFix"/>
<feBlend mode="normal" in="SourceGraphic" in2="BackgroundImageFix" result="shape"/>
<feGaussianBlur stdDeviation="95.5" result="effect1_foregroundBlur_20_585"/>
</filter>
</defs>
</svg>
