<svg width="2330" height="1468" viewBox="0 0 2330 1468" fill="none" xmlns="http://www.w3.org/2000/svg">
<path d="M806 332.264L810.877 345.214L823.827 350.091L810.877 354.968L806 367.918L801.123 354.968L788.173 350.091L801.123 345.214L806 332.264ZM806 313.091L795.909 340L769 350.091L795.909 360.182L806 387.091L816.091 360.182L843 350.091L816.091 340L806 313.091Z" fill="white"/>
<path d="M1868.4 261.666L1880.02 269.179L1893.33 265.4L1885.82 277.022L1889.6 290.334L1877.98 282.821L1864.67 286.6L1872.18 274.978L1868.4 261.666ZM1857 246.25L1864.89 273.886L1849.25 297.999L1876.89 290.113L1901 305.749L1893.11 278.114L1908.75 254.001L1881.11 261.887L1857 246.25Z" fill="white"/>
<path d="M1101.24 610.292L1104.21 629.943L1120.94 640.674L1101.29 643.644L1090.56 660.372L1087.59 640.721L1070.86 629.99L1090.51 627.02L1101.24 610.292ZM1106.99 583.362L1084.75 618.134L1043.93 624.245L1078.7 646.482L1084.81 687.302L1107.05 652.529L1147.87 646.419L1113.1 624.182L1106.99 583.362Z" fill="white"/>
<path d="M1690.62 898.88L1699.12 909.802L1712.93 910.62L1702.01 919.118L1701.19 932.931L1692.69 922.01L1678.88 921.191L1689.8 912.694L1690.62 898.88ZM1684.94 880.569L1683.28 909.26L1660.57 926.875L1689.26 928.535L1706.88 951.242L1708.53 922.551L1731.24 904.936L1702.55 903.277L1684.94 880.569Z" fill="white"/>
<path d="M1356.64 417.445L1356.9 428.381L1365.29 435.399L1354.36 435.66L1347.34 444.052L1347.08 433.116L1338.69 426.098L1349.62 425.837L1356.64 417.445ZM1361.64 403.138L1347.09 420.586L1324.38 421.097L1341.83 435.646L1342.34 458.359L1356.89 440.911L1379.6 440.4L1362.15 425.851L1361.64 403.138Z" fill="white"/>
<path d="M761.876 587.314L767.411 617.492L748.314 641.505L778.492 635.969L802.505 655.066L796.969 624.889L816.066 600.876L785.889 606.411L761.876 587.314Z" fill="white"/>
<path d="M922.318 963.922L911.791 987.743L886.922 995.474L910.743 1006L918.474 1030.87L929.001 1007.05L953.87 999.318L930.05 988.791L922.318 963.922Z" fill="white"/>
<path d="M1758.63 574.999L1763.22 590.029L1754.92 603.374L1769.95 598.778L1783.29 607.08L1778.7 592.051L1787 578.706L1771.97 583.301L1758.63 574.999Z" fill="white"/>
<path d="M1616.73 177.597L1584.6 193.368L1551.6 179.534L1567.37 211.66L1553.53 244.666L1585.66 228.895L1618.67 242.729L1602.89 210.603L1616.73 177.597Z" fill="white"/>
<path d="M1273 1094.74L1268.12 1081.79L1255.17 1076.91L1268.12 1072.03L1273 1059.08L1277.88 1072.03L1290.83 1076.91L1277.88 1081.79L1273 1094.74ZM1273 1113.91L1283.09 1087L1310 1076.91L1283.09 1066.82L1273 1039.91L1262.91 1066.82L1236 1076.91L1262.91 1087L1273 1113.91Z" fill="white"/>
<path d="M210.599 1165.33L198.978 1157.82L185.666 1161.6L193.178 1149.98L189.4 1136.67L201.021 1144.18L214.334 1140.4L206.821 1152.02L210.599 1165.33ZM221.999 1180.75L214.113 1153.11L229.749 1129L202.113 1136.89L178.001 1121.25L185.886 1148.89L170.25 1173L197.886 1165.11L221.999 1180.75Z" fill="white"/>
<path d="M977.757 816.708L974.787 797.057L958.059 786.326L977.71 783.356L988.442 766.628L991.412 786.279L1008.14 797.01L988.488 799.98L977.757 816.708ZM972.012 843.638L994.249 808.865L1035.07 802.755L1000.3 780.518L994.187 739.698L971.95 774.47L931.13 780.581L965.902 802.818L972.012 843.638Z" fill="white"/>
<path d="M388.38 528.12L379.882 517.198L366.068 516.38L376.99 507.882L377.809 494.069L386.306 504.99L400.12 505.809L389.198 514.306L388.38 528.12ZM394.064 546.431L395.723 517.74L418.431 500.125L389.74 498.465L372.124 475.758L370.465 504.449L347.758 522.064L376.449 523.723L394.064 546.431Z" fill="white"/>
<path d="M722.36 1009.55L722.099 998.619L713.707 991.601L724.643 991.34L731.661 982.948L731.922 993.884L740.314 1000.9L729.378 1001.16L722.36 1009.55ZM717.359 1023.86L731.908 1006.41L754.621 1005.9L737.173 991.354L736.662 968.641L722.113 986.089L699.4 986.6L716.848 1001.15L717.359 1023.86Z" fill="white"/>
<path d="M1317.12 839.686L1311.59 809.508L1330.69 785.495L1300.51 791.031L1276.5 771.934L1282.03 802.111L1262.93 826.124L1293.11 820.589L1317.12 839.686Z" fill="white"/>
<path d="M1156.68 463.078L1167.21 439.257L1192.08 431.526L1168.26 420.999L1160.53 396.13L1150 419.951L1125.13 427.682L1148.95 438.209L1156.68 463.078Z" fill="white"/>
<path d="M320.373 852.001L315.778 836.971L324.08 823.626L309.05 828.222L295.706 819.92L300.301 834.949L291.999 848.294L307.028 843.699L320.373 852.001Z" fill="white"/>
<path d="M462.271 1249.4L494.397 1233.63L527.403 1247.47L511.632 1215.34L525.466 1182.33L493.34 1198.11L460.334 1184.27L476.106 1216.4L462.271 1249.4Z" fill="white"/>
<path d="M2204.52 782.44L2200.85 792.165L2191.12 795.828L2200.85 799.491L2204.52 809.216L2208.18 799.491L2217.91 795.828L2208.18 792.165L2204.52 782.44ZM2204.52 768.042L2212.1 788.25L2232.32 795.828L2212.1 803.406L2204.52 823.614L2196.94 803.406L2176.72 795.828L2196.94 788.25L2204.52 768.042Z" fill="white"/>
<path d="M1406.24 729.423L1397.51 735.065L1387.51 732.228L1393.15 740.955L1390.31 750.952L1399.05 745.31L1409.05 748.148L1403.4 739.42L1406.24 729.423ZM1414.81 717.847L1408.88 738.6L1420.63 756.709L1399.87 750.786L1381.75 762.529L1387.67 741.775L1375.92 723.667L1396.69 729.589L1414.81 717.847Z" fill="white"/>
<path d="M1982.68 991.233L1980.44 1005.99L1967.88 1014.05L1982.64 1016.28L1990.7 1028.84L1992.94 1014.08L2005.5 1006.03L1990.74 1003.79L1982.68 991.233ZM1978.36 971.009L1995.07 997.122L2025.74 1001.71L1999.61 1018.41L1995.02 1049.07L1978.31 1022.95L1947.64 1018.36L1973.77 1001.66L1978.36 971.009Z" fill="white"/>
<path d="M1539.82 1207.96L1533.44 1216.16L1523.06 1216.77L1531.27 1223.15L1531.88 1233.53L1538.27 1225.33L1548.65 1224.71L1540.44 1218.33L1539.82 1207.96ZM1544.1 1194.2L1545.34 1215.75L1562.4 1228.98L1540.85 1230.23L1527.61 1247.28L1526.36 1225.73L1509.3 1212.5L1530.86 1211.26L1544.1 1194.2Z" fill="white"/>
<path d="M1790.77 846.409L1790.58 854.622L1784.27 859.892L1792.49 860.089L1797.76 866.39L1797.96 858.178L1804.26 852.908L1796.05 852.711L1790.77 846.409ZM1787.02 835.665L1797.95 848.768L1815.01 849.152L1801.9 860.078L1801.52 877.135L1790.59 864.032L1773.52 863.648L1786.63 852.722L1787.02 835.665Z" fill="white"/>
<path d="M2237.67 973.977L2233.51 996.64L2247.86 1014.67L2225.19 1010.52L2207.14 1024.86L2211.3 1002.19L2196.95 984.162L2219.63 988.319L2237.67 973.977Z" fill="white"/>
<path d="M2117.12 1256.8L2125.03 1274.69L2143.71 1280.5L2125.82 1288.4L2120.01 1307.08L2112.1 1289.19L2093.41 1283.38L2111.31 1275.48L2117.12 1256.8Z" fill="white"/>
<path d="M1488.72 964.729L1485.27 976.016L1491.51 986.037L1480.22 982.587L1470.19 988.821L1473.64 977.534L1467.4 967.513L1478.7 970.964L1488.72 964.729Z" fill="white"/>
<path d="M1595.35 666.289L1619.48 678.133L1644.28 667.744L1632.43 691.869L1642.83 716.656L1618.69 704.812L1593.89 715.202L1605.74 691.076L1595.35 666.289Z" fill="white"/>
<path d="M1144.09 985.437L1141.05 993.493L1133 996.527L1141.05 999.561L1144.09 1007.62L1147.12 999.561L1155.18 996.527L1147.12 993.493L1144.09 985.437ZM1144.09 973.511L1150.37 990.25L1167.11 996.527L1150.37 1002.8L1144.09 1019.54L1137.81 1002.8L1121.07 996.527L1137.81 990.25L1144.09 973.511Z" fill="white"/>
<path d="M483.04 941.521L475.809 946.194L467.525 943.844L472.2 951.073L469.849 959.354L477.08 954.681L485.363 957.031L480.689 949.802L483.04 941.521ZM490.133 931.931L485.226 949.123L494.955 964.123L477.76 959.217L462.756 968.944L467.663 951.753L457.934 936.753L475.129 941.658L490.133 931.931Z" fill="white"/>
<path d="M960.383 1158.39L958.535 1170.61L948.126 1177.29L960.353 1179.14L967.031 1189.54L968.879 1177.32L979.287 1170.64L967.06 1168.8L960.383 1158.39ZM956.808 1141.64L970.644 1163.27L996.043 1167.07L974.407 1180.9L970.605 1206.3L956.769 1184.67L931.37 1180.86L953.006 1167.03L956.808 1141.64Z" fill="white"/>
<path d="M593.659 1337.91L588.371 1344.71L579.776 1345.22L586.572 1350.5L587.081 1359.09L592.368 1352.3L600.964 1351.79L594.168 1346.51L593.659 1337.91ZM597.196 1326.52L598.228 1344.37L612.357 1355.33L594.505 1356.36L583.544 1370.49L582.512 1352.64L568.383 1341.68L586.235 1340.65L597.196 1326.52Z" fill="white"/>
<path d="M801.469 1038.43L801.306 1045.23L796.085 1049.59L802.889 1049.76L807.256 1054.98L807.419 1048.17L812.64 1043.81L805.835 1043.65L801.469 1038.43ZM798.357 1029.53L807.41 1040.38L821.542 1040.7L810.686 1049.75L810.368 1063.88L801.315 1053.02L787.182 1052.71L798.039 1043.66L798.357 1029.53Z" fill="white"/>
<path d="M1171.54 1144.1L1168.1 1162.87L1179.98 1177.81L1161.21 1174.36L1146.26 1186.24L1149.71 1167.47L1137.83 1152.53L1156.6 1155.98L1171.54 1144.1Z" fill="white"/>
<path d="M1071.71 1378.37L1078.26 1393.19L1093.74 1398L1078.92 1404.55L1074.11 1420.02L1067.56 1405.2L1052.08 1400.39L1066.9 1393.84L1071.71 1378.37Z" fill="white"/>
<path d="M551.343 1136.44L548.484 1145.79L553.65 1154.09L544.298 1151.23L535.995 1156.39L538.854 1147.04L533.688 1138.74L543.04 1141.6L551.343 1136.44Z" fill="white"/>
<path d="M639.635 889.224L659.624 899.035L680.161 890.429L670.348 910.413L678.956 930.945L658.967 921.135L638.43 929.74L648.243 909.756L639.635 889.224Z" fill="white"/>
<path d="M1103.09 154.437L1100.05 162.493L1092 165.527L1100.05 168.561L1103.09 176.617L1106.12 168.561L1114.18 165.527L1106.12 162.493L1103.09 154.437ZM1103.09 142.511L1109.37 159.25L1126.11 165.527L1109.37 171.804L1103.09 188.544L1096.81 171.804L1080.07 165.527L1096.81 159.25L1103.09 142.511Z" fill="white"/>
<path d="M442.04 110.521L434.809 115.194L426.525 112.844L431.2 120.073L428.849 128.354L436.08 123.681L444.363 126.031L439.689 118.802L442.04 110.521ZM449.133 100.931L444.226 118.123L453.955 133.123L436.76 128.217L421.756 137.944L426.663 120.753L416.934 105.753L434.129 110.658L449.133 100.931Z" fill="white"/>
<path d="M919.383 327.391L917.535 339.615L907.126 346.29L919.353 348.138L926.031 358.544L927.879 346.32L938.287 339.644L926.06 337.797L919.383 327.391ZM915.808 310.638L929.644 332.269L955.043 336.07L933.407 349.903L929.605 375.296L915.769 353.665L890.37 349.864L912.006 336.031L915.808 310.638Z" fill="white"/>
<path d="M552.659 506.913L547.371 513.707L538.776 514.216L545.572 519.502L546.081 528.095L551.368 521.301L559.964 520.792L553.168 515.506L552.659 506.913ZM556.196 495.522L557.228 513.37L571.357 524.328L553.505 525.36L542.544 539.486L541.512 521.638L527.383 510.68L545.235 509.648L556.196 495.522Z" fill="white"/>
<path d="M760.469 207.426L760.306 214.229L755.085 218.595L761.889 218.757L766.256 223.977L766.419 217.174L771.64 212.809L764.835 212.646L760.469 207.426ZM757.357 198.526L766.41 209.38L780.542 209.698L769.686 218.749L769.368 232.877L760.315 222.024L746.182 221.706L757.039 212.655L757.357 198.526Z" fill="white"/>
<path d="M1130.54 313.097L1127.1 331.869L1138.98 346.807L1120.21 343.364L1105.26 355.243L1108.71 336.471L1096.83 321.533L1115.6 324.977L1130.54 313.097Z" fill="white"/>
<path d="M1030.71 547.373L1037.26 562.191L1052.74 567.001L1037.92 573.55L1033.11 589.02L1026.56 574.202L1011.08 569.392L1025.9 562.843L1030.71 547.373Z" fill="white"/>
<path d="M510.343 305.436L507.484 314.786L512.65 323.087L503.298 320.228L494.995 325.393L497.854 316.043L492.688 307.742L502.04 310.601L510.343 305.436Z" fill="white"/>
<path d="M598.635 58.2241L618.624 68.0348L639.161 59.429L629.348 79.4134L637.956 99.9454L617.967 90.1347L597.43 98.7404L607.243 78.7561L598.635 58.2241Z" fill="white"/>
<path d="M2085.09 266.437L2082.05 274.493L2074 277.527L2082.05 280.561L2085.09 288.617L2088.12 280.561L2096.18 277.527L2088.12 274.493L2085.09 266.437ZM2085.09 254.511L2091.37 271.25L2108.11 277.527L2091.37 283.804L2085.09 300.544L2078.81 283.804L2062.07 277.527L2078.81 271.25L2085.09 254.511Z" fill="white"/>
<path d="M1424.04 222.521L1416.81 227.194L1408.53 224.844L1413.2 232.073L1410.85 240.354L1418.08 235.681L1426.36 238.031L1421.69 230.802L1424.04 222.521ZM1431.13 212.931L1426.23 230.123L1435.96 245.123L1418.76 240.217L1403.76 249.944L1408.66 232.753L1398.93 217.753L1416.13 222.658L1431.13 212.931Z" fill="white"/>
<path d="M1901.38 439.391L1899.53 451.615L1889.13 458.29L1901.35 460.138L1908.03 470.544L1909.88 458.32L1920.29 451.644L1908.06 449.797L1901.38 439.391ZM1897.81 422.638L1911.64 444.269L1937.04 448.07L1915.41 461.903L1911.61 487.296L1897.77 465.665L1872.37 461.864L1894.01 448.031L1897.81 422.638Z" fill="white"/>
<path d="M1534.66 618.913L1529.37 625.707L1520.78 626.216L1527.57 631.502L1528.08 640.095L1533.37 633.301L1541.96 632.792L1535.17 627.506L1534.66 618.913ZM1538.2 607.522L1539.23 625.37L1553.36 636.328L1535.5 637.36L1524.54 651.486L1523.51 633.638L1509.38 622.68L1527.23 621.648L1538.2 607.522Z" fill="white"/>
<path d="M1742.47 319.426L1742.31 326.229L1737.08 330.595L1743.89 330.757L1748.26 335.977L1748.42 329.174L1753.64 324.809L1746.84 324.646L1742.47 319.426ZM1739.36 310.526L1748.41 321.38L1762.54 321.698L1751.69 330.749L1751.37 344.877L1742.31 334.024L1728.18 333.706L1739.04 324.655L1739.36 310.526Z" fill="white"/>
<path d="M2112.54 425.097L2109.1 443.869L2120.98 458.807L2102.21 455.364L2087.26 467.243L2090.71 448.471L2078.83 433.533L2097.6 436.977L2112.54 425.097Z" fill="white"/>
<path d="M2012.71 659.373L2019.26 674.191L2034.74 679.001L2019.92 685.55L2015.11 701.02L2008.56 686.202L1993.08 681.392L2007.9 674.843L2012.71 659.373Z" fill="white"/>
<path d="M1492.34 417.436L1489.48 426.786L1494.65 435.087L1485.3 432.228L1476.99 437.393L1479.85 428.043L1474.69 419.742L1484.04 422.601L1492.34 417.436Z" fill="white"/>
<path d="M1580.64 170.224L1600.62 180.035L1621.16 171.429L1611.35 191.413L1619.96 211.945L1599.97 202.135L1579.43 210.74L1589.24 190.756L1580.64 170.224Z" fill="white"/>
</svg>
